<svg xmlns="http://www.w3.org/2000/svg" viewBox="0 0 24 24" fill="#FF9A00">
  <path d="M9.52 8.32c-.11-.07-.07-.14.04-.19l6.64-2.77c.11-.04.17 0 .17.14v11.01c0 .14-.06.2-.17.24l-6.64 2.74c-.11.04-.15 0-.04-.1zM0 12.95V11.1l2.2 1.26v-1.6l2.2 1.26V8.9l-2.2 1.26-2.2-1.26L0 7.64l2.2-1.26L0 5.12l2.2-1.26V2.26L0 3.52v-1.6L2.2.66l2.2 1.26V3.52l2.2-1.26L8.8.66v1.6L6.6 3.52v3.12l2.2-1.26v3.12l-2.2 1.26v3.12l2.2 1.26v1.6l-2.2-1.26L4.4 15.74v-1.6l2.2-1.26V9.76l-2.2 1.26L2.2 9.76v3.12L0 11.62v1.6l2.2 1.26-2.2 1.26v1.6l2.2-1.26 2.2 1.26v-1.6l-2.2-1.26zm17.6-7.83l2.2 1.26 2.2-1.26L24 6.38l-2.2 1.26v1.6l-2.2-1.26-2.2 1.26V7.64L15.2 6.38l2.2-1.26 2.2 1.26z"/>
</svg>
