<svg width="183" height="33" viewBox="0 0 183 33" fill="none" xmlns="http://www.w3.org/2000/svg">
<path d="M0.146422 0.827969C0.401478 1.33335 0.854913 1.9521 1.2989 2.40081C2.36164 3.47299 3.59914 4.12007 4.93582 4.31372C5.15309 4.34206 12.4128 4.36096 25.7371 4.36096H46.2031L46.1747 4.48376C46.1559 4.54989 45.0742 8.21985 43.7659 12.6408C42.4575 17.0618 41.3712 20.779 41.357 20.897C41.3381 21.0293 41.3523 21.2513 41.3948 21.4591C41.5223 22.0684 41.8955 22.5407 42.4528 22.8147C42.8023 22.9847 43.4541 23.0225 43.8367 22.8997C44.3327 22.7391 44.7247 22.4038 44.9561 21.9551C45.0128 21.8511 46.1653 18.0253 47.5162 13.4532C48.8717 8.8811 50.0289 4.96553 50.0951 4.74826L50.2131 4.36096L54.568 4.3704L58.9229 4.38457L59.1732 4.49793C59.4802 4.6349 59.7636 4.95136 59.8722 5.26782C60.0376 5.77321 60.1462 5.37646 56.8493 16.5705C55.1631 22.2857 53.732 27.0656 53.6706 27.1979C53.4202 27.6938 52.9054 28.2039 52.4047 28.4542C51.8002 28.7518 52.5984 28.7329 41.0878 28.7329C29.4874 28.7329 30.3093 28.7565 29.8936 28.4353C29.785 28.3551 29.6291 28.1661 29.5488 28.0244C29.4118 27.7835 29.4024 27.7316 29.4071 27.3396C29.4071 26.9192 29.4402 26.8011 32.2505 17.2838C33.8139 11.989 35.0939 7.64361 35.0939 7.63889C35.0939 7.62944 28.812 7.62 21.1367 7.62H7.17938L7.23134 7.74752C7.33525 8.02147 7.73673 8.64022 8.08152 9.05586C9.02618 10.1989 10.2637 10.9782 11.7043 11.3372C11.9924 11.4128 12.7906 11.4175 21.08 11.4317C26.0583 11.4411 30.1345 11.4647 30.1345 11.4836C30.1298 11.5025 29.922 12.2157 29.6716 13.0753L29.2087 14.634L21.7601 14.6482C17.6651 14.6529 14.3115 14.6765 14.3115 14.6954C14.3115 14.7143 14.406 14.8938 14.5194 15.0922C15.5726 16.9437 17.4147 18.2142 19.3654 18.4362C19.5969 18.4646 21.5192 18.4835 23.9187 18.4835H28.0657L28.0374 18.5874C28.0232 18.6488 27.3856 20.8309 26.6157 23.4429C25.8458 26.0548 25.1845 28.3362 25.1467 28.5109C25.0475 28.9832 25.0617 29.772 25.1751 30.2255C25.3262 30.8206 25.5199 31.1607 25.978 31.6141C26.4126 32.0534 26.8093 32.2848 27.395 32.4501C27.6878 32.5304 28.2594 32.5351 39.9825 32.5351H52.2631L52.7212 32.4076C54.6861 31.8644 56.4573 30.301 57.128 28.5204C57.2792 28.1189 64.109 4.92302 64.194 4.52627C64.2838 4.09645 64.2649 3.27461 64.1515 2.84007C63.8634 1.75373 63.1077 1.00273 61.9458 0.643761C61.6718 0.563465 60.5241 0.558743 30.8288 0.549295L0 0.535126L0.146422 0.827969Z" fill="#EC4624"/>
<path d="M76.1674 0.8232C74.9252 1.07825 74.7457 1.12549 74.1836 1.36637C73.376 1.71117 72.7053 2.07014 72.0345 2.52357C71.2883 3.02423 70.9199 3.32652 70.2869 3.94999C68.8416 5.37641 67.845 7.03427 67.1412 9.17863C65.9557 12.8108 65.9935 15.1913 67.2735 17.109C68.1426 18.4031 69.3565 19.1447 71.2221 19.5225C72.1621 19.7115 72.488 19.7256 76.6114 19.754C80.3617 19.7823 80.664 19.7918 80.8765 19.8721C81.4575 20.0893 81.6322 20.5947 81.4575 21.5205C81.3441 22.1109 80.8671 23.679 80.6687 24.0946C80.305 24.8834 79.8516 25.3794 79.1998 25.71C78.4724 26.0737 78.6046 26.0642 74.0608 26.0642H70.0224L69.7863 25.9462C69.5879 25.847 69.5265 25.7856 69.4084 25.5447C69.2714 25.2707 69.2667 25.2329 69.2431 24.4583C69.2289 24.0143 69.1911 23.6034 69.1628 23.5373C69.0919 23.3814 68.8274 23.1311 68.6621 23.0697C68.4449 22.9894 63.5704 22.9988 63.3721 23.0839C63.0178 23.2303 62.8619 23.5326 62.6777 24.4442C62.2715 26.4232 62.6211 28.2039 63.7546 29.9137C64.8268 31.529 66.565 32.2942 69.569 32.469C70.8679 32.5445 76.2949 32.4926 77.1168 32.3981C79.2517 32.1478 80.9143 31.6046 82.1896 30.7355C84.0364 29.4791 85.7415 27.656 86.5964 26.0359C86.9412 25.3746 87.1018 24.9165 87.6403 23.098C88.1645 21.3126 88.2401 20.8687 88.2496 19.5698C88.2496 18.8093 88.2401 18.7054 88.1268 18.285C87.9709 17.7324 87.7017 17.005 87.5127 16.6177C87.1018 15.7959 86.3366 14.8938 85.6518 14.4214C85.1936 14.105 84.4426 13.7507 83.9089 13.5996C83.0162 13.3445 82.8461 13.3351 78.8313 13.3351C76.7909 13.3351 74.8685 13.3115 74.5568 13.2878C73.8341 13.2312 73.4279 13.1131 73.2106 12.8864L73.0453 12.7163L73.0501 12.1401C73.0548 11.5072 73.1492 11.0774 73.5413 9.87767C73.9758 8.55516 74.6654 7.76637 75.714 7.37907C76.4839 7.1004 76.5689 7.09567 80.5884 7.11457C83.9278 7.12874 84.2631 7.13818 84.5229 7.21375C85.3589 7.46409 85.5431 7.7711 85.3731 8.64017C85.2361 9.33449 85.34 9.67457 85.7651 9.9249L85.9871 10.0524L88.344 10.0666C91.0552 10.0808 91.126 10.076 91.4236 9.77375C91.6267 9.57066 91.7023 9.38645 91.8392 8.72519C92.1038 7.46881 92.0282 5.98571 91.6361 4.6632C91.4236 3.95944 91.3291 3.76578 90.9465 3.29346C89.6004 1.64032 88.0465 0.738182 86.2752 0.582314C85.9777 0.553974 83.975 0.539804 81.6417 0.539804L77.5324 0.544529L76.1674 0.8232Z" fill="#204691"/>
<path d="M96.9917 0.566116C96.9397 0.575563 96.85 0.594456 96.7933 0.608625C96.6563 0.636965 96.3682 0.887297 96.2832 1.05733C96.1651 1.27933 89.817 22.926 89.5714 23.9367L89.34 24.8814V25.9205C89.34 26.6904 89.3636 27.0683 89.4202 27.3847C89.6706 28.7167 90.1335 29.6802 90.9175 30.4973C91.7299 31.3381 92.6557 31.8482 93.9593 32.1788C95.074 32.4575 95.348 32.4764 99.0699 32.5C103.344 32.5236 104.185 32.4764 105.649 32.1505C106.707 31.9143 107.496 31.5931 108.531 30.9791C110.836 29.6046 112.673 27.6445 113.608 25.5521C113.882 24.9333 114.161 24.1162 114.161 23.9273C114.161 23.5589 113.953 23.2377 113.622 23.0818L113.381 22.9685H110.925C109.381 22.9685 108.403 22.9874 108.294 23.0157C107.992 23.1007 107.855 23.266 107.52 23.9462C107.236 24.5271 107.166 24.6263 106.821 24.9711C106.372 25.4198 105.994 25.6513 105.375 25.8638L104.927 26.015H101.002H97.0767L96.7508 25.8497C96.491 25.7174 96.4013 25.6371 96.2879 25.4529C96.1556 25.2451 96.1415 25.179 96.1273 24.7444C96.1131 24.3902 96.132 24.1587 96.2029 23.8423C96.2548 23.6061 97.7474 18.4956 99.5186 12.4829L102.74 1.54855L102.683 1.2935C102.603 0.943975 102.324 0.660582 101.979 0.585011C101.743 0.533054 97.2184 0.51416 96.9917 0.566116Z" fill="#204691"/>
<path d="M124.198 0.577871C123.862 0.662889 123.635 0.85182 123.522 1.13522C123.451 1.30525 114.69 31.0995 114.623 31.3782C114.562 31.6568 114.633 31.9355 114.831 32.1622C115.134 32.5023 114.992 32.4881 117.76 32.5023C119.446 32.5117 120.315 32.4976 120.443 32.4645C120.655 32.4078 120.934 32.1858 121.033 31.9969C121.17 31.7277 129.984 1.66894 129.984 1.46584C129.984 1.16356 129.814 0.870712 129.535 0.700676L129.308 0.558979L126.824 0.549532C125.459 0.544809 124.278 0.558979 124.198 0.577871Z" fill="#204691"/>
<path d="M166.99 0.817711C165.488 1.12 165.257 1.20029 164.137 1.76236C162.971 2.34804 162.116 2.9479 161.218 3.81225C159.825 5.14893 158.857 6.65565 158.125 8.61107C157.95 9.07867 153.978 22.5069 153.718 23.5129C153.316 25.0716 153.231 26.6066 153.501 27.6458C153.614 28.0897 154.025 29.1336 154.242 29.5209C154.332 29.6862 154.53 29.9696 154.681 30.1585C155.782 31.5519 157.605 32.3029 160.264 32.4635C161.27 32.5249 165.899 32.5249 166.957 32.4635C169.002 32.3454 170.552 31.9911 171.917 31.3299C172.606 30.9945 173.107 30.6781 173.745 30.1632C175.615 28.6565 176.933 26.9089 177.75 24.859C177.967 24.3206 180.9 14.4396 180.9 14.2554C180.9 13.9247 180.683 13.5847 180.376 13.4288C180.201 13.339 180.074 13.3343 176.205 13.3343C173.504 13.3343 172.172 13.3485 172.082 13.3863C171.921 13.4477 171.704 13.6461 171.614 13.8161C171.581 13.8822 171.241 14.9875 170.863 16.2675C170.4 17.8497 170.178 18.6716 170.178 18.8275C170.178 19.0636 170.292 19.347 170.443 19.4793C170.707 19.7107 170.821 19.7343 171.822 19.7485C172.413 19.7579 172.776 19.7863 172.776 19.8146C172.776 19.876 171.77 23.2862 171.647 23.6452C171.232 24.8496 170.41 25.6195 169.182 25.9548L168.785 26.0635H164.959C161.336 26.0635 161.119 26.0587 160.878 25.9737C160.208 25.7423 160 25.1755 160.189 24.0939C160.278 23.5838 164.265 10.0233 164.463 9.56516C165.044 8.19542 165.994 7.40192 167.321 7.17048C167.911 7.07129 174.571 7.06657 175.048 7.16576C175.922 7.34996 176.172 7.73255 176.111 8.76221C176.083 9.2062 176.092 9.30539 176.168 9.47542C176.267 9.70214 176.541 9.96192 176.734 10.0139C176.904 10.0611 181.689 10.0611 181.859 10.0139C182.076 9.95247 182.35 9.66435 182.454 9.39041C182.719 8.68192 182.856 7.21771 182.747 6.24944C182.615 5.11114 182.289 4.02007 181.939 3.55247C180.763 1.98435 179.394 1.0397 177.745 0.666567C177.292 0.567379 177.221 0.562656 172.823 0.553209L168.36 0.53904L166.99 0.817711Z" fill="#204691"/>
<path d="M133.928 0.672337C133.716 0.766802 133.527 0.965178 133.442 1.17772C133.413 1.2533 131.401 8.07367 128.969 16.3393C125.719 27.387 124.552 31.4254 124.552 31.5954C124.552 32.0064 124.836 32.3512 125.27 32.4645C125.389 32.4976 126.314 32.5117 127.92 32.5023C130.112 32.4881 130.4 32.4787 130.527 32.4078C130.683 32.3228 130.891 32.115 130.967 31.9686C130.99 31.9166 132.218 27.7743 133.692 22.7582C135.166 17.7422 136.389 13.6282 136.403 13.6046C136.422 13.5857 137.839 17.5721 139.549 22.4607C141.259 27.354 142.718 31.5199 142.794 31.7182C142.95 32.1339 143.181 32.3795 143.488 32.4645C143.62 32.4976 144.437 32.5117 146.006 32.5023L148.334 32.4881L148.533 32.3748C148.74 32.2567 148.873 32.1008 148.962 31.8741C149.151 31.3782 157.852 1.65005 157.852 1.49891C157.847 1.13522 157.62 0.799864 157.275 0.653444C157.011 0.544809 152.269 0.544809 152.004 0.658167C151.777 0.752632 151.598 0.922668 151.504 1.13994C151.466 1.2344 150.228 5.40503 148.759 10.4069C147.29 15.4089 146.076 19.5417 146.058 19.5889C146.039 19.6645 146.025 19.6692 145.991 19.6126C145.973 19.5748 144.565 15.4183 142.86 10.3739C141.16 5.32946 139.738 1.14466 139.7 1.06909C139.606 0.889606 139.44 0.743185 139.232 0.653444C139.081 0.592041 138.708 0.582596 136.587 0.582596C134.292 0.582596 134.103 0.592041 133.928 0.672337Z" fill="#204691"/>
</svg>
